PathFileType	4	(X/Y/Z)	Kaydara																																																																																																																									
DataRate	CameraRate	NumFrames	NumMarkers	Units	OrigDataRate	OrigDataStartFrame	OrigNumFrames																																																																																																																					
30	30	6	41	mm	30	25	195																																																																																																																					
Frame#	Time	NABA_LFHD			NABA_RFHD			NABA_LBHD			NABA_RBHD			NABA_LFTShould			NABA_RFTShould			NABA_LRRShould			NABA_RRRShould			NABA_T10			NABA_STRN			NABA_TRUN			NABA_LSHO			NABA_LUPA			NABA_LELB			NABA_LFRM			NABA_LWRA			NABA_LWRB			NABA_LFIN			NABA_RSHO			NABA_RUPA			NABA_RELB			NABA_RFRM			NABA_RWRA			NABA_RWRB			NABA_RFIN			NABA_LFWT			NABA_RFWT			NABA_LBWT			NABA_RBWT			NABA_LTHI			NABA_LKNE			NABA_LSHN			NABA_LANK			NABA_LHEE			NABA_LTOE			NABA_RTHI			NABA_RKNE			NABA_RSHN			NABA_RANK			NABA_RHEE			NABA_RTOE		
		X1	Y1	Z1	X2	Y2	Z2	X3	Y3	Z3	X4	Y4	Z4	X5	Y5	Z5	X6	Y6	Z6	X7	Y7	Z7	X8	Y8	Z8	X9	Y9	Z9	X10	Y10	Z10	X11	Y11	Z11	X12	Y12	Z12	X13	Y13	Z13	X14	Y14	Z14	X15	Y15	Z15	X16	Y16	Z16	X17	Y17	Z17	X18	Y18	Z18	X19	Y19	Z19	X20	Y20	Z20	X21	Y21	Z21	X22	Y22	Z22	X23	Y23	Z23	X24	Y24	Z24	X25	Y25	Z25	X26	Y26	Z26	X27	Y27	Z27	X28	Y28	Z28	X29	Y29	Z29	X30	Y30	Z30	X31	Y31	Z31	X32	Y32	Z32	X33	Y33	Z33	X34	Y34	Z34	X35	Y35	Z35	X36	Y36	Z36	X37	Y37	Z37	X38	Y38	Z38	X39	Y39	Z39	X40	Y40	Z40	X41	Y41	Z41
																																																																																																																												
25	0.81	237.50704	1623.39874	-1970.9549	66.01493	1607.1051	-1940.41122	248.79383	1586.92902	-2092.84149	33.40134	1583.64655	-2034.76227	227.98168	1346.52588	-1969.04312	91.86819	1343.43765	-1971.20316	228.61393	1380.40314	-2096.84036	78.50936	1379.44489	-2089.3428	164.20902	1207.92862	-2140.68237	159.64185	1299.17648	-1914.95331	159.40613	1208.797	-1854.52209	326.43776	1357.63474	-2025.74814	380.08877	1119.17091	-2045.32471	389.9234	1037.4601	-2012.72461	382.4947	964.83986	-2029.87457	326.7366	822.80449	-1945.8194	398.37769	823.14941	-1945.70999	375.99941	765.68901	-1900.82489	-2.96589	1356.75537	-2022.42599	-51.14301	1152.73148	-2075.54962	-73.62027	1030.00023	-2024.71649	-75.82731	935.86044	-2012.37808	-7.68235	817.58057	-1929.91196	-81.17258	805.04593	-1928.23502	-64.48544	769.28268	-1895.64285	289.36701	954.56596	-1933.25699	22.94868	953.90892	-1938.54218	234.59667	1022.82898	-2102.53738	76.02165	1033.20717	-2109.35394	293.27576	658.26241	-2081.37695	290.35177	507.37907	-2031.92871	240.43354	309.45379	-2015.51956	268.92353	159.60289	-2087.45819	210.52158	111.56862	-2140.25299	240.81318	78.58804	-1956.2709	28.36366	671.66504	-2088.40866	45.15361	508.09242	-1982.65213	57.68666	334.69521	-2007.63519	54.72491	143.25552	-2077.13181	112.32764	98.341	-2142.92023	62.3928	77.26675	-1955.23636
26	0.843	237.2806	1623.53485	-1970.30945	65.79987	1606.95297	-1939.74518	248.6322	1587.08374	-2092.16476	33.23371	1583.53119	-2034.14658	228.03024	1346.58188	-1968.59619	91.93318	1343.29086	-1970.86517	228.69263	1380.45319	-2096.35223	78.59822	1379.3605	-2089.02695	164.51147	1207.88841	-2140.21667	159.5361	1299.08539	-1914.56985	159.38406	1208.75076	-1854.14001	326.48682	1357.86224	-2025.15427	380.31647	1119.33701	-2044.30649	390.20733	1037.70409	-2011.77429	382.9483	965.10262	-2028.96515	327.23644	822.94098	-1944.83093	398.98003	823.39622	-1944.8761	376.61102	765.96107	-1899.88281	-2.93671	1356.61407	-2022.23907	-50.84597	1152.55417	-2075.4184	-73.32398	1029.77356	-2024.5816	-75.34594	935.62607	-2012.04956	-7.05755	817.5544	-1929.39926	-80.47553	805.00465	-1927.7153	-63.69733	769.29573	-1895.02487	289.57775	954.4915	-1933.06107	23.33779	953.90434	-1938.0127	234.73448	1022.84531	-2102.11121	76.16306	1033.1665	-2108.79227	293.46085	658.30223	-2081.10779	290.52679	507.40967	-2031.828	240.51691	309.50151	-2015.47516	268.97299	159.6268	-2087.56897	210.63463	111.65945	-2140.24628	240.8445	78.57549	-1956.2793	28.50127	671.63452	-2087.82761	45.40689	508.08048	-1982.19437	58.40439	334.68773	-2008.1134	54.80261	143.25262	-2076.91742	112.36157	98.41158	-2142.85873	62.42738	77.24088	-1955.19775
27	0.877	237.06743	1623.67386	-1969.42932	65.68949	1606.72729	-1938.89038	248.50691	1587.40005	-2091.3179	33.11118	1583.39432	-2033.33984	228.12136	1346.6774	-1968.08533	92.02325	1343.23517	-1970.45074	228.91853	1380.51559	-2095.77652	78.80978	1379.30695	-2088.60748	164.81941	1207.90054	-2139.69452	159.72922	1299.20059	-1914.13376	159.50052	1208.80905	-1853.64838	326.65272	1358.02673	-2024.49066	380.71949	1119.59488	-2043.41064	390.47451	1037.93907	-2010.72571	383.34843	965.37254	-2028.02368	327.68204	823.01575	-1944.10156	399.53758	823.66295	-1944.1539	377.13306	766.00365	-1899.31732	-2.80419	1356.53961	-2021.92825	-50.51594	1152.55333	-2075.5043	-73.02423	1029.62593	-2024.74823	-74.77267	935.40733	-2011.9194	-6.08224	817.89459	-1928.65448	-79.59119	804.95293	-1927.21359	-62.80511	769.48761	-1894.36813	289.94926	954.51492	-1932.62466	23.70349	953.77945	-1937.25769	234.78371	1022.94907	-2101.5799	76.25575	1033.17055	-2108.10806	293.57481	658.46985	-2080.99167	290.69757	507.48966	-2031.8306	240.72077	309.55572	-2015.46616	269.07417	159.67832	-2087.59537	210.70114	111.78885	-2140.21942	240.90006	78.56567	-1956.26694	28.67115	671.6787	-2087.30331	45.59056	508.01716	-1981.8454	58.84966	334.74701	-2008.12805	54.82026	143.28258	-2076.90048	112.37216	98.45842	-2142.81662	62.4459	77.24915	-1955.16754
28	0.91	236.86834	1623.85162	-1968.31543	65.49257	1606.56555	-1937.98248	248.43075	1587.83218	-2090.29175	32.99063	1583.2933	-2032.47482	228.29334	1346.76514	-1967.61337	92.19292	1343.18573	-1970.04974	229.10656	1380.522	-2095.26031	79.06131	1379.29321	-2088.20709	165.09274	1207.86354	-2139.07547	159.83469	1299.29749	-1913.66364	159.62355	1208.96011	-1853.16513	326.80321	1358.08319	-2023.8768	380.98534	1119.8214	-2042.68127	390.73277	1038.08815	-2009.84573	383.7421	965.59677	-2027.29584	328.2428	823.00255	-1943.72711	400.0391	823.76663	-1943.67844	377.6371	765.92964	-1898.91022	-2.61926	1356.52695	-2021.58783	-50.00739	1152.59033	-2075.43869	-72.69418	1029.59412	-2024.8822	-74.22658	935.24345	-2011.8129	-5.12182	818.25554	-1928.01453	-78.68696	805.04364	-1926.83517	-61.88441	769.6637	-1893.7854	290.30233	954.59976	-1932.13852	23.98994	953.76366	-1936.51398	234.89437	1023.03802	-2101.02463	76.34305	1033.27942	-2107.35382	293.60233	658.53638	-2080.74509	290.86407	507.55623	-2031.71692	240.82592	309.6701	-2015.4129	269.18238	159.76072	-2087.5032	210.76023	111.90083	-2140.1944	240.93084	78.55584	-1956.24695	28.924	671.63193	-2086.74393	45.62716	507.99122	-1981.3147	58.31476	334.66667	-2007.13226	54.80198	143.3091	-2076.77582	112.41621	98.5116	-2142.77908	62.40864	77.2226	-1955.17273
29	0.943	236.73433	1623.91922	-1967.14417	65.39496	1606.39633	-1936.90552	248.36863	1588.14804	-2089.20227	32.9442	1583.15277	-2031.35696	228.44282	1346.69861	-1967.11716	92.33196	1343.16391	-1969.71832	229.29312	1380.51529	-2094.70917	79.31423	1379.23462	-2087.73941	165.3311	1207.84775	-2138.50143	159.99306	1299.26468	-1913.18817	159.78433	1208.97057	-1852.621	327.01553	1358.12012	-2023.34595	381.16238	1119.80331	-2042.08878	390.96291	1038.10959	-2009.29855	384.06567	965.69252	-2026.81244	328.89275	822.77946	-1943.62167	400.39452	823.71399	-1943.19778	378.31116	765.84114	-1898.76846	-2.44727	1356.52435	-2021.15265	-49.61445	1152.70493	-2075.19562	-72.29832	1029.53514	-2024.72733	-73.68192	935.15884	-2011.57349	-4.54244	818.2608	-1927.75879	-77.8861	804.98947	-1926.38931	-61.01849	769.7068	-1893.38638	290.59893	954.57298	-1931.63269	24.11598	953.72032	-1935.86227	235.05571	1023.05801	-2100.45807	76.4995	1033.26759	-2106.73904	293.66962	658.64403	-2080.44312	290.93721	507.60429	-2031.521	240.8717	309.67554	-2015.28839	269.16544	159.84494	-2087.42828	210.74625	111.96631	-2140.11841	240.92566	78.52303	-1956.22452	29.1096	671.67664	-2086.26862	45.7727	507.92339	-1980.96573	58.64515	334.58889	-2007.38297	54.86597	143.34301	-2076.7099	112.4306	98.62435	-2142.74246	62.39529	77.23808	-1955.11063
30	0.977	236.73082	1623.94333	-1965.94131	65.31506	1606.14883	-1935.56412	248.30252	1588.54309	-2088.08075	32.92674	1583.09357	-2030.04227	228.6784	1346.60141	-1966.59256	92.51451	1343.09647	-1969.23294	229.52496	1380.51224	-2094.1684	79.52785	1379.22272	-2087.15836	165.56398	1207.80479	-2138.00491	160.16975	1299.13528	-1912.6886	160.05613	1208.91144	-1852.10754	327.25407	1358.01849	-2022.84241	381.32915	1119.62746	-2041.65466	391.15219	1038.01758	-2009.01093	384.2551	965.62691	-2026.5799	329.33712	822.68723	-1943.30734	401.00586	823.61473	-1943.2373	378.92231	765.74242	-1898.65036	-2.25063	1356.46683	-2020.59891	-49.27085	1152.60559	-2074.66476	-71.86654	1029.41452	-2024.28055	-73.14072	935.05241	-2011.17538	-3.93763	818.17986	-1927.49863	-77.28364	804.84543	-1926.06476	-60.33058	769.57458	-1893.05038	290.78609	954.58641	-1930.88547	24.16473	953.71399	-1935.14801	235.26304	1023.0442	-2099.81171	76.70918	1033.24913	-2106.13525	293.79532	658.65944	-2079.91837	291.00012	507.55928	-2031.17203	240.82211	309.64378	-2015.12085	269.21629	159.85575	-2087.21695	210.73767	112.07842	-2140.0679	240.90246	78.50551	-1956.21155	29.3282	671.65947	-2085.82932	45.86283	507.87483	-1980.66559	59.07988	334.68517	-2007.3555	54.91515	143.38406	-2076.57761	112.46373	98.67095	-2142.68478	62.39702	77.22878	-1955.07309
